<svg width="40" height="40" viewBox="0 0 40 40" fill="none" xmlns="http://www.w3.org/2000/svg">
<rect width="40" height="40" rx="10" fill="#1A1F16"/>
<path d="M16.25 29C17.0784 29 17.75 28.3284 17.75 27.5C17.75 26.6716 17.0784 26 16.25 26C15.4216 26 14.75 26.6716 14.75 27.5C14.75 28.3284 15.4216 29 16.25 29Z" fill="white"/>
<path d="M26.75 29C27.5784 29 28.25 28.3284 28.25 27.5C28.25 26.6716 27.5784 26 26.75 26C25.9216 26 25.25 26.6716 25.25 27.5C25.25 28.3284 25.9216 29 26.75 29Z" fill="white"/>
<path d="M29.4125 13.6616C29.3071 13.5327 29.1744 13.4289 29.0239 13.3577C28.8734 13.2865 28.709 13.2497 28.5425 13.25H14.2761L13.9887 11.6197C13.9581 11.446 13.8673 11.2887 13.7322 11.1754C13.5971 11.0621 13.4263 11 13.25 11H10.25C10.0511 11 9.86032 11.079 9.71967 11.2197C9.57902 11.3603 9.5 11.5511 9.5 11.75C9.5 11.9489 9.57902 12.1397 9.71967 12.2803C9.86032 12.421 10.0511 12.5 10.25 12.5H12.6209L14.7613 24.6303C14.7919 24.804 14.8827 24.9613 15.0178 25.0746C15.1529 25.1879 15.3237 25.25 15.5 25.25H27.5C27.6989 25.25 27.8897 25.171 28.0303 25.0303C28.171 24.8897 28.25 24.6989 28.25 24.5C28.25 24.3011 28.171 24.1103 28.0303 23.9697C27.8897 23.829 27.6989 23.75 27.5 23.75H16.1291L15.8647 22.25H27.1925C27.4526 22.2497 27.7046 22.1595 27.9058 21.9947C28.1071 21.8299 28.2452 21.6007 28.2969 21.3458L29.6469 14.5958C29.6794 14.4324 29.6753 14.2639 29.6347 14.1023C29.5942 13.9408 29.5183 13.7902 29.4125 13.6616Z" fill="white"/>
</svg>
